<svg xmlns="http://www.w3.org/2000/svg" width="512" height="512" viewBox="0 0 64 64" role="img" aria-labelledby="title desc">
  <title id="title">SaltedPixel gradient glyph</title>
  <desc id="desc">Rounded diamond with sparkle mark used for SaltedPixel branding.</desc>
  <defs>
    <linearGradient id="g" x1="0" x2="1" y1="1" y2="0">
      <stop offset="0" stop-color="#3b82f6" />
      <stop offset="1" stop-color="#a855f7" />
    </linearGradient>
  </defs>
  <rect x="8" y="8" width="48" height="48" rx="12" fill="url(#g)" />
  <path fill="#fff" d="M31.8 17a1 1 0 0 1 .9.56l2.2 4.72 5.16 1.24a1 1 0 0 1 .19 1.87l-4.53 2.65.7 5.4a1 1 0 0 1-1.46 1.02L32 31.5l-4.96 2.96a1 1 0 0 1-1.46-1.02l.7-5.4-4.53-2.65a1 1 0 0 1 .19-1.87l5.16-1.24 2.2-4.72a1 1 0 0 1 .88-.56z" />
</svg>
